<svg width="24" height="24" xmlns="http://www.w3.org/2000/svg">
 <style type="text/css">.st0{fill:#E21D38;}
	.st1{fill:#FFFFFF;}
	.st2{font-family:'ArialMT';}
	.st3{font-size:16.8708px;}</style>

 <g>
  <title>background</title>
  <rect fill="none" id="canvas_background" height="26" width="26" y="-1" x="-1"/>
 </g>
 <g>
  <title>Layer 1</title>
  <path stroke="null" d="m11.455054,13.610408c6.414296,0.649929 8.884874,2.816358 8.769785,5.774005c-0.115089,1.591855 -1.350378,3.108355 -2.938607,3.249644c-1.879788,0.141289 -2.762137,-0.791218 -3.291546,-1.808498c-0.468029,-0.941926 -0.997438,-1.874432 -1.526848,-2.891712c-0.115089,-0.291997 -0.35294,-0.075354 -0.52941,0.075354c-0.414321,0.433286 -0.76726,0.941926 -1.1202,1.375212c-0.237851,0.291997 -0.17647,0.50864 -0.115089,0.725283c0.35294,1.007861 0.705879,2.02514 1.058819,2.957647c0.59079,0.433286 3.237838,1.007861 5.179007,0.791218c1.350378,-0.141289 2.999988,-0.791218 4.411746,-2.02514c1.350378,-1.299858 2.355489,-3.033001 2.531959,-5.849359c0.061381,-1.733143 -0.17647,-3.541641 -1.411759,-5.19943c-1.235289,-1.657789 -3.352927,-3.033001 -7.649585,-3.390933c0.237851,-0.866572 0.414321,-1.657789 0.644499,-2.458426c2.585667,0.141289 4.879775,0.357932 6.828616,0.649929c0.17647,-0.941926 0.237851,-1.808498 0.414321,-2.675069l-0.52941,-0.791218c-0.997438,-0.141289 -1.941168,-0.433286 -2.999988,-0.574575c-1.350378,-0.216643 -2.762137,-0.357932 -4.296657,-0.433286c-1.012784,3.466287 -2.194364,7.8745 -3.429653,12.499355m-1.703318,-13.507216c-0.468029,0 -1.1202,0.141289 -2.179019,0.433286c-2.294108,0.791218 -5.117626,2.741004 -5.416857,5.990648c-0.061381,0.50864 -0.061381,1.083215 -0.115089,1.591855c-0.644499,0.075354 -1.235289,0.141289 -1.826079,0.216643c-0.061381,0.649929 -0.061381,1.224504 -0.115089,1.874432c0.59079,-0.075354 1.173908,-0.075354 1.826079,-0.141289c-0.115089,3.390933 0,6.791285 0.237851,9.965575c0.061381,0.50864 0.061381,0.941926 0.061381,1.224504c-0.061381,0.291997 -0.468029,0.433286 -1.058819,0.433286l0.76726,1.158569c2.232727,0.50864 5.056245,0.866572 8.063905,0.941926c0,-0.357932 0,-0.725283 0,-1.083215c-1.764699,-0.141289 -2.585667,-0.433286 -2.708429,-0.866572c-0.115089,-0.357932 -0.115089,-0.866572 -0.17647,-1.375212c-0.115089,-3.324998 -0.17647,-6.932574 -0.115089,-10.615504c0.997438,0 2.002549,0 2.999988,-0.075354c0.52941,-0.291997 0.997438,-0.574575 1.47314,-0.866572c0,-0.433286 0,-0.866572 0,-1.224504c-1.526848,0 -2.999988,0.075354 -4.473127,0.075354c0.061381,-1.516501 0.115089,-2.957647 0.17647,-4.332859c0.061381,-0.941926 0.59079,-1.591855 1.058819,-1.591855c0.820968,-0.075354 1.588229,0.357932 2.355489,0.791218c0.414321,0.216643 0.820968,0.50864 1.235289,0.725283c0.17647,0.075354 0.414321,0.141289 0.59079,-0.075354c0.237851,-0.357932 0.468029,-0.725283 0.705879,-1.007861c0.115089,-0.216643 0.061381,-0.357932 0,-0.433286c-0.52941,-0.50864 -0.997438,-0.941926 -1.526848,-1.441146c-0.291559,-0.291997 -0.820968,-0.291997 -1.29667,-0.291997c-0.191815,-0.075354 -0.368285,0 -0.544755,0" class="st1" id="XMLID_6_"/>
 </g>
</svg>