<svg xmlns="http://www.w3.org/2000/svg" width="82.011" height="80.018" viewBox="0 0 82.011 80.018"><defs><style>.cls-1,.cls-2,.cls-3{fill:none;stroke-linecap:round;stroke-linejoin:round;}.cls-1,.cls-3{stroke:#231f20;}.cls-1{stroke-width:2px;}.cls-2{stroke:#000;stroke-width:2.043px;}.cls-3{stroke-width:1.993px;}</style></defs><g id="Layer_2" data-name="Layer 2"><g id="Layer_1-2" data-name="Layer 1"><circle class="cls-1" cx="40.999" cy="42.503" r="13.287"/><path class="cls-1" d="M37,19.911l2.733,5.494c.1-.007.2-.019.3-.025a17.419,17.419,0,0,1,2.333.03l2.552-5.517"/><path class="cls-1" d="M39.73,25.405,37,19.911a22.848,22.848,0,0,0-3.9,1.045l.546,6.054"/><path class="cls-1" d="M48.818,20.923l-.377,6.127a17.177,17.177,0,0,1,2.168,1.25l4.938-3.543"/><path class="cls-1" d="M48.441,27.05l.377-6.127a22.793,22.793,0,0,0-3.9-1.03L42.365,25.41"/><path class="cls-1" d="M31.241,28.4,26.106,25.05a23.174,23.174,0,0,0-2.827,2.881l3.536,4.942"/><path class="cls-1" d="M26.106,25.05,31.241,28.4a17.14,17.14,0,0,1,2.4-1.391L33.1,20.956"/><path class="cls-1" d="M56.456,49.931l6.127.374a22.707,22.707,0,0,0,1.028-3.9l-5.518-2.549"/><path class="cls-1" d="M19.436,34.654l6.126.386a17.307,17.307,0,0,1,1.253-2.167l-3.536-4.942"/><path class="cls-1" d="M55.088,32.721l3.343-5.14a23.1,23.1,0,0,0-2.884-2.824L50.609,28.3"/><path class="cls-1" d="M63.589,38.484,58.1,41.219c.008.1.02.207.026.312a17.44,17.44,0,0,1-.029,2.323L63.611,46.4"/><path class="cls-1" d="M58.1,41.219l5.493-2.735a22.827,22.827,0,0,0-1.047-3.9l-6.054.549"/><path class="cls-1" d="M58.431,27.581l-3.343,5.14a17.147,17.147,0,0,1,1.4,2.414l6.054-.549"/><path class="cls-1" d="M50.789,56.581l5.141,3.34a23.036,23.036,0,0,0,2.823-2.885L55.207,52.1"/><path class="cls-1" d="M44.963,65.1l-2.722-5.5c-.091.007-.179.017-.27.022a17.1,17.1,0,0,1-2.366-.032L37.043,65.1"/><path class="cls-1" d="M42.241,59.6l2.722,5.5a22.763,22.763,0,0,0,3.9-1.038L48.329,58"/><path class="cls-1" d="M55.93,59.921l-5.141-3.34A17.182,17.182,0,0,1,48.329,58l.534,6.055"/><path class="cls-1" d="M62.583,50.305l-6.127-.374A17.182,17.182,0,0,1,55.207,52.1l3.546,4.936"/><path class="cls-1" d="M33.533,57.936l-.389,6.125a22.767,22.767,0,0,0,3.9,1.039L39.6,59.588"/><path class="cls-1" d="M18.407,46.474l5.5-2.726c-.007-.093-.018-.185-.023-.278a17.282,17.282,0,0,1,.031-2.357L18.4,38.554"/><path class="cls-1" d="M25.562,35.04l-6.126-.386a22.8,22.8,0,0,0-1.036,3.9l5.513,2.559"/><path class="cls-1" d="M23.905,43.748l-5.5,2.726a22.848,22.848,0,0,0,1.04,3.9l6.055-.537"/><path class="cls-1" d="M26.9,52.253l-3.353,5.133a23.036,23.036,0,0,0,2.879,2.829l4.944-3.533"/><path class="cls-1" d="M33.144,64.061l.389-6.125a17.3,17.3,0,0,1-2.166-1.254l-4.944,3.533"/><path class="cls-1" d="M23.544,57.386,26.9,52.253A17.109,17.109,0,0,1,25.5,49.836l-6.055.537"/><polyline class="cls-1" points="27.777 42.266 35.667 42.266 38.656 35.833 42.072 49.024 45.915 42.212 53.709 42.212"/></g><g id="Isolation_Mode" data-name="Isolation Mode"><path class="cls-2" d="M70.95,21.637a36.565,36.565,0,0,0-19.081-14"/><path class="cls-2" d="M70.223,64.375A36.342,36.342,0,0,0,77.506,42.5c0-.073-.006-.145-.006-.218"/><path class="cls-2" d="M29.281,77.061a36.468,36.468,0,0,0,23.457,0"/><path class="cls-2" d="M4.511,42.279c0,.073,0,.145,0,.218A36.338,36.338,0,0,0,11.792,64.38"/><path class="cls-2" d="M30.142,7.641a36.565,36.565,0,0,0-19.081,14"/><circle class="cls-3" cx="41.006" cy="5.997" r="5"/><circle class="cls-3" cx="5.997" cy="31.391" r="5"/><circle class="cls-3" cx="76.014" cy="31.391" r="5"/><circle class="cls-3" cx="62.662" cy="72.344" r="5"/><circle class="cls-3" cx="19.359" cy="72.344" r="5"/></g></g></svg>