<?xml version="1.0" standalone="no"?>
<!DOCTYPE svg PUBLIC "-//W3C//DTD SVG 20010904//EN"
 "http://www.w3.org/TR/2001/REC-SVG-20010904/DTD/svg10.dtd">
<svg version="1.0" xmlns="http://www.w3.org/2000/svg"
 width="134.000000pt" height="56.000000pt" viewBox="0 0 134.000000 56.000000"
 preserveAspectRatio="xMidYMid meet">

<g transform="translate(0.000000,56.000000) scale(0.100000,-0.100000)"
fill="#000000" stroke="none">
<path d="M70 301 l0 -171 65 0 c75 0 116 17 133 55 16 35 15 60 -4 97 -11 22
-13 33 -5 41 20 20 13 84 -13 114 -21 25 -31 28 -100 31 l-76 4 0 -171z m125
69 c0 -31 -3 -35 -27 -38 -27 -3 -28 -1 -28 38 0 39 1 41 28 38 24 -3 27 -7
27 -38z m13 -128 c5 -30 -14 -52 -44 -52 -21 0 -24 5 -24 41 0 39 1 40 33 37
25 -2 33 -8 35 -26z"/>
<path d="M320 300 l0 -170 35 0 35 0 0 170 0 170 -35 0 -35 0 0 -170z"/>
<path d="M473 446 c-28 -24 -28 -25 -28 -146 0 -121 0 -122 28 -146 40 -35
114 -34 156 2 29 24 31 31 31 90 l0 64 -55 0 c-54 0 -55 0 -55 -30 0 -24 4
-30 21 -30 16 0 20 -5 17 -27 -3 -25 -7 -28 -38 -28 l-35 0 0 105 0 105 35 0
c31 0 35 -3 38 -27 3 -25 8 -28 38 -28 32 0 34 2 34 34 0 77 -122 118 -187 62z"/>
<path d="M870 300 l0 -170 35 0 35 0 0 170 0 170 -35 0 -35 0 0 -170z"/>
<path d="M1019 441 c-29 -29 -29 -31 -29 -141 0 -110 0 -112 29 -141 16 -16
40 -29 52 -29 12 0 43 -12 67 -26 l45 -27 19 24 c19 23 19 23 -1 38 -18 14
-18 18 -5 35 10 15 14 49 14 129 0 107 -1 109 -29 138 -25 25 -37 29 -81 29
-44 0 -56 -4 -81 -29z m116 -141 l0 -105 -35 0 -35 0 -3 94 c-1 52 0 101 3
108 3 9 17 13 37 11 l33 -3 0 -105z"/>
<path d="M710 260 c0 -30 1 -30 55 -30 54 0 55 0 55 30 0 30 -1 30 -55 30 -54
0 -55 0 -55 -30z"/>
</g>
</svg>
