<svg width="16" height="16" xmlns="http://www.w3.org/2000/svg" xmlns:svg="http://www.w3.org/2000/svg" preserveAspectRatio="xMidYMid meet">
 <g class="layer">
  <title>Layer 1</title>
  <path d="m8.47737,8c0,0.76614 0.01323,0.76614 0.72774,0.76614c0.7145,0 0.72774,0 0.72774,-0.76614c0,-0.76614 -0.01323,-0.76614 -0.72774,-0.76614c-0.7145,0 -0.72774,0 -0.72774,0.76614z" fill="#bf0000" id="svg_7" transform="matrix(1 0 0 1 0 0)"/>
  <path d="m12.21536,3.72237c-0.38372,0.7406 -0.38372,0.79168 -0.38372,3.60087c0,2.80919 0,2.86027 0.38372,3.60087c0.2117,0.40861 0.52926,0.7406 0.68804,0.7406c0.15878,0 0.56896,0.30646 0.88651,0.66399l0.59542,0.68953l0.2514,-0.61291c0.2514,-0.58738 0.2514,-0.58738 -0.01323,-0.97045c-0.23817,-0.35753 -0.23817,-0.45969 -0.06616,-0.89383c0.13232,-0.38307 0.18524,-1.25137 0.18524,-3.29441c0,-2.73257 -0.01323,-2.78365 -0.38372,-3.52426c-0.33079,-0.63845 -0.48957,-0.7406 -1.07176,-0.7406c-0.58219,0 -0.74097,0.10215 -1.07176,0.7406l0,0l0,0l0.00002,0zm1.53486,3.60087l0,2.6815l-0.4631,0l-0.4631,0l-0.0397,-2.40058c-0.01323,-1.32798 0,-2.57935 0.0397,-2.75811c0.0397,-0.22984 0.22494,-0.332 0.48957,-0.28092l0.43664,0.07661l0,2.6815l0,0l-0.00001,0z" fill="#bf0000" id="svg_6" transform="matrix(1 0 0 1 0 0)"/>
  <path d="m10.39628,8l0,4.34147l0.4631,0l0.4631,0l0,-4.34147l0,-4.34147l-0.4631,0l-0.4631,0l0,4.34147z" fill="#bf0000" id="svg_5" transform="matrix(1 0 0 1 0 0)"/>
  <path d="m5.73778,4.27558c-0.37048,0.61291 -0.37048,0.63845 -0.37048,3.72856c0,3.09011 0,3.11565 0.37048,3.72856c0.52926,0.89383 1.5084,0.8683 2.06412,-0.05108c0.38372,-0.61291 0.41018,-0.79168 0.41018,-2.29843l0,-1.63444l-0.72774,0c-0.7145,0 -0.72774,0 -0.72774,0.76614c0,0.61291 0.05293,0.76614 0.27786,0.76614c0.2117,0 0.26463,0.12769 0.22494,0.68953c-0.0397,0.63845 -0.09262,0.71507 -0.5028,0.71507l-0.4631,0l0,-2.6815l0,-2.6815l0.4631,0c0.41018,0 0.4631,0.07661 0.5028,0.68953c0.0397,0.63845 0.10585,0.71507 0.5028,0.71507c0.42341,0 0.44987,-0.05108 0.44987,-0.8683c0,-1.96643 -1.61425,-3.01349 -2.4743,-1.58336l0,0l0,0l0.00001,0.00001z" fill="#bf0000" id="svg_4" transform="matrix(1 0 0 1 0 0)"/>
  <path d="m3.71335,8l0,4.34147l0.4631,0l0.4631,0l0,-4.34147l0,-4.34147l-0.4631,0l-0.4631,0l0,4.34147z" fill="#bf0000" id="svg_3" transform="matrix(1 0 0 1 0 0)"/>
  <path d="m0.61885,8l0,4.36701l0.86005,0c0.99237,0 1.53486,-0.43415 1.75979,-1.4046c0.2117,-0.89383 0.19847,-1.53229 -0.05293,-2.47719c-0.14555,-0.56184 -0.17201,-0.84276 -0.06616,-1.04706c0.26463,-0.51076 0.17201,-2.1452 -0.17201,-2.91134c-0.27786,-0.63845 -0.41018,-0.71507 -1.32315,-0.79168l-1.0056,-0.10215l0,4.36701l0,0l0.00001,0zm1.65394,-1.76213c0,0.79168 -0.0397,0.89383 -0.35725,0.97045c-0.35725,0.07661 -0.37048,0.02554 -0.37048,-0.97045c0,-0.99599 0.01323,-1.04706 0.37048,-0.97045c0.31756,0.07661 0.35725,0.17877 0.35725,0.97045zm0.17201,3.26887c0.06616,0.76614 -0.18524,1.32798 -0.58219,1.32798c-0.27786,0 -0.31756,-0.12769 -0.31756,-1.04706c0,-0.99599 0.01323,-1.02152 0.43664,-0.94491c0.33079,0.05108 0.43664,0.2043 0.4631,0.66399l0,0l0,0l0.00001,0z" fill="#bf0000" id="svg_2" marker-start="url(#se_marker_start_svg_2)"/>
 </g>
 <defs>
  <marker id="se_marker_start_svg_2" markerHeight="5" markerUnits="strokeWidth" markerWidth="5" orient="auto" refX="50" refY="50" viewBox="0 0 100 100">
   <circle cx="50" cy="50" fill="none" id="svg_1" r="30" stroke-width="10"/>
  </marker>
 </defs>
</svg>