<?xml version="1.0" encoding="UTF-8" standalone="no"?>
<!DOCTYPE svg PUBLIC "-//W3C//DTD SVG 1.1//EN" "http://www.w3.org/Graphics/SVG/1.1/DTD/svg11.dtd">
<svg version="1.1" xmlns="http://www.w3.org/2000/svg" xmlns:xlink="http://www.w3.org/1999/xlink" preserveAspectRatio="xMidYMid meet" viewBox="-1 95.55753398430019 456.3377369327972 514.2967643116982" width="452.34" height="510.3"><defs><path d="M0 479.48L0 223.93L226.14 96.56L359.82 171.79L360.01 214.74L226.14 139.38L37.31 245.74L37.31 457.67L226.14 564.03L415.03 457.67L415.03 301.8L452.34 323L452.34 479.48L226.14 606.85L226.14 606.85L0 479.48Z" id="gKedex6x"></path><path d="M241.64 397.5C229.47 407.72 222.71 413.4 221.36 414.54C235.09 429.9 254.73 438.68 275.34 438.68C309.95 438.68 335.01 414.17 335.01 381.57C335.01 348.98 311.55 325.51 277.6 325.51C272.26 325.56 266.94 326.03 261.67 326.92C261.79 325.04 262.38 315.63 263.45 298.68L318.59 298.68L326.98 272.52L239.8 272.52C237.78 323.73 236.66 352.17 236.43 357.86C246.71 352.01 258.3 348.87 270.13 348.73C292.43 348.73 306.89 362.64 306.89 381.33C307 398.45 293.21 412.42 276.09 412.53C275.66 412.54 275.22 412.53 274.78 412.51C262.17 412.3 250.21 406.87 241.76 397.5M117.45 433.65L145.45 433.65L145.45 362.64L204.88 362.64L204.88 338.14L145.45 338.14L145.45 297.33L212.29 297.33L212.29 272.82L117.33 272.82L117.45 433.65Z" id="c6pMyrQXh"></path></defs><g><g><use xlink:href="#gKedex6x" opacity="1" fill="#FFFFFF" fill-opacity="1"></use><g><use xlink:href="#gKedex6x" opacity="1" fill-opacity="0" stroke="#FFFFFF" stroke-width="1" stroke-opacity="0"></use></g></g><g><use xlink:href="#c6pMyrQXh" opacity="1" fill="#FFFFFF" fill-opacity="1"></use><g><use xlink:href="#c6pMyrQXh" opacity="1" fill-opacity="0" stroke="#FFFFFF" stroke-width="1" stroke-opacity="0"></use></g></g></g></svg>