<?xml version="1.0" encoding="UTF-8" standalone="no"?>
<svg
   version="1.1"
   preserveAspectRatio="xMidYMid"
   viewBox="-1 95.557534 456.33774 514.29676"
   width="452.34"
   height="510.29999"
   id="svg799"
   sodipodi:docname="f5_open_dark.svg"
   inkscape:version="1.2.1 (9c6d41e410, 2022-07-14)"
   inkscape:export-filename="next12.svg"
   inkscape:export-xdpi="96"
   inkscape:export-ydpi="96"
   xmlns:inkscape="http://www.inkscape.org/namespaces/inkscape"
   xmlns:sodipodi="http://sodipodi.sourceforge.net/DTD/sodipodi-0.dtd"
   xmlns:xlink="http://www.w3.org/1999/xlink"
   xmlns="http://www.w3.org/2000/svg"
   xmlns:svg="http://www.w3.org/2000/svg">
  <sodipodi:namedview
     id="namedview801"
     pagecolor="#505050"
     bordercolor="#ffffff"
     borderopacity="1"
     inkscape:showpageshadow="0"
     inkscape:pageopacity="0"
     inkscape:pagecheckerboard="1"
     inkscape:deskcolor="#505050"
     showgrid="true"
     inkscape:zoom="2.0125417"
     inkscape:cx="144.59328"
     inkscape:cy="252.66557"
     inkscape:window-width="3440"
     inkscape:window-height="1378"
     inkscape:window-x="-8"
     inkscape:window-y="-8"
     inkscape:window-maximized="1"
     inkscape:current-layer="svg799">
    <inkscape:grid
       type="xygrid"
       id="grid844" />
  </sodipodi:namedview>
  <defs
     id="defs779">
    <rect
       x="19.378481"
       y="318.50272"
       width="414.40134"
       height="174.40633"
       id="rect900" />
    <path
       d="M 0,479.48 V 223.93 L 226.14,96.56 359.82,171.79 360.01,214.74 226.14,139.38 37.31,245.74 V 457.67 L 226.14,564.03 415.03,457.67 V 301.8 l 37.31,21.2 v 156.48 l -226.2,127.37 v 0 z"
       id="b12bhP42ud" />
    <path
       d="m 246.04,414.61 c -15.63,14.6 -24.31,22.71 -26.05,24.33 17.64,21.95 42.85,34.49 69.32,34.48 44.45,0 76.63,-35.01 76.63,-81.56 0,-46.56 -30.13,-80.08 -73.72,-80.08 -6.86,0.06 -13.7,0.74 -20.46,2.01 0.16,-2.69 0.92,-16.14 2.29,-40.34 h 70.81 l 10.78,-37.37 H 243.68 c -2.6,73.14 -4.04,113.78 -4.33,121.91 13.2,-8.36 28.09,-12.84 43.27,-13.04 28.64,0 47.21,19.86 47.21,46.56 0.14,24.45 -17.56,44.41 -39.55,44.57 -0.56,0 -1.12,-0.01 -1.68,-0.03 -16.2,-0.3 -31.55,-8.07 -42.41,-21.44 M 86.55,466.24 h 35.96 V 364.81 h 76.32 v -35 h -76.32 v -58.29 h 85.84 V 236.51 H 86.4 Z"
       id="a2tqoHgQOg" />
  </defs>
  <g
     id="g785">
    <use
       xlink:href="#b12bhP42ud"
       opacity="1"
       fill-opacity="0"
       stroke="#c5c5c5"
       stroke-width="1"
       stroke-opacity="0"
       id="use783" />
  </g>
  <g
     id="g793">
    <use
       xlink:href="#a2tqoHgQOg"
       opacity="1"
       fill-opacity="0"
       stroke="#c5c5c5"
       stroke-width="1"
       stroke-opacity="0"
       id="use791" />
  </g>
  <use
     xlink:href="#a2tqoHgQOg"
     opacity="1"
     fill="#c5c5c5"
     fill-opacity="1"
     id="use789"
     transform="matrix(1.2797417,0,0,1.2797417,-60.854975,-206.68818)" />
  <text
     xml:space="preserve"
     transform="matrix(1.1913304,0,0,1.9481493,-38.073789,-248.55674)"
     id="text898"
     style="font-style:normal;font-variant:normal;font-weight:bold;font-stretch:normal;font-size:133.333px;font-family:sans-serif;-inkscape-font-specification:'sans-serif Bold';letter-spacing:0px;white-space:pre;shape-inside:url(#rect900);display:inline;fill:#999999"><tspan
       x="19.378906"
       y="440.14568"
       id="tspan1075">N-CM</tspan></text>
</svg>
